# xmcd
#
# Track frame offsets: 
#        150
#        19454
#        43577
#        90862
#        104153
#        135611
#        157332
#        175053
#        189451
#        209431
#        226302
#        240993
#        271434
#
# Disc length: 4096 seconds
#
# Revision: 1
# Processed by: cddbd v1.5.2PL0 Copyright (c) Steve Scherf et al.
# Submitted via: ExactAudioCopyFreeDBPlugin 1.0
#
DISCID=b20ffe0d
DTITLE=Fleetwood Mac - 1970 [R2003] - Live In Boston Vol.3
DYEAR=1970
DGENRE=
TTITLE0=Jumping At Shadows
TTITLE1=Sandy Mary
TTITLE2=If You Let Me Love You
TTITLE3=Loving Kind
TTITLE4=Coming Your Way
TTITLE5=Madison Blues
TTITLE6=Got To Move
TTITLE7=The Sun Is Shining
TTITLE8=Oh Baby
TTITLE9=Tiger
TTITLE10=Great Balls Of Fire
TTITLE11=Tutti Frutti
TTITLE12=On We Jam
EXTD=
EXTT0=
EXTT1=
EXTT2=
EXTT3=
EXTT4=
EXTT5=
EXTT6=
EXTT7=
EXTT8=
EXTT9=
EXTT10=
EXTT11=
EXTT12=
PLAYORDER=
